<svg width="58" height="50" fill="none" xmlns="http://www.w3.org/2000/svg"><path d="M27.407 24.998l.365-.633 7.585-13.132L28.872 0 14.434 24.998 28.872 50l6.485-11.233-7.585-13.132-.365-.637z" fill="#fff"/><path d="M19.822 36.865l-5.388 9.33L2.197 24.999 14.434 3.804l5.388 9.328 1.1-1.899L14.434 0 0 24.998 14.434 50l6.489-11.233-1.1-1.902zm23.156-14.919l.01.007V17.92l-9.102 15.763 1.156 2.005 7.936-13.742zm0-5.514l.01.007v-4.033L32.295 30.93l1.157 2.001 9.526-16.499zM30.267 27.417l12.711-22.01.01.008V.55L28.872 24.998l1.395 2.42zm12.711-16.499l.01.007v-4.03L30.701 28.174l1.157 2.001 11.12-19.256zM43.621.55v48.9l14.12-24.452L43.62.55zm-.643 26.907l.01.006v-4.032l-7.512 13.01 1.157 2 6.345-10.984zm0 5.513l.01.008v-4.033L37.07 39.197l1.156 2.002 4.752-8.228zm.01 11.23l-1.514 2.625 1.514 2.625V44.2zm-1.948 1.87l1.938-3.357.01.007v-2.75l-2.737 4.741.789 1.359zm1.938-7.589l.01.007v-4.03l-4.328 7.496 1.157 2.002 3.161-5.475z" fill="#fff"/></svg>